<svg width="40" height="40" viewBox="0 0 40 40" fill="none" xmlns="http://www.w3.org/2000/svg">
<path d="M31.9351 7.1867C30.313 5.54854 28.3832 4.24703 26.2566 3.35694C24.13 2.46685 21.8484 2.00573 19.5431 2.00005C17.2377 1.99438 14.9539 2.44427 12.8229 3.32388C10.692 4.20349 8.75578 5.49548 7.12563 7.12563C5.49548 8.75578 4.20349 10.692 3.32388 12.8229C2.44427 14.9539 1.99438 17.2377 2.00005 19.5431C2.00573 21.8485 2.46685 24.13 3.35694 26.2566C4.24703 28.3832 5.54854 30.313 7.18669 31.9351C8.8088 33.5733 10.7386 34.8748 12.8652 35.7649C14.9918 36.655 17.2734 37.1161 19.5788 37.1218C21.8841 37.1275 24.1679 36.6776 26.2989 35.798C28.4299 34.9183 30.366 33.6264 31.9962 31.9962C33.6263 30.3661 34.9183 28.4299 35.7979 26.2989C36.6775 24.1679 37.1274 21.8841 37.1218 19.5788C37.1161 17.2734 36.655 14.9918 35.7649 12.8652C34.8748 10.7386 33.5733 8.8088 31.9351 7.1867ZM4.56091 19.5609C4.56035 18.2333 4.73637 16.9116 5.08435 15.6304C5.65779 16.8648 6.4906 17.9312 7.057 19.1976C7.78904 20.8258 9.75466 20.3742 10.6226 21.8008C11.3929 23.0672 10.5703 24.6687 11.1468 25.9937C11.5656 26.9555 12.5531 27.1656 13.2343 27.8687C13.9304 28.5781 13.9156 29.55 14.0218 30.475C14.1417 31.5618 14.3362 32.6391 14.6039 33.6992C14.6039 33.707 14.6039 33.7156 14.6101 33.7234C8.76404 31.6703 4.56091 26.0976 4.56091 19.5609ZM19.5609 34.5609C18.7232 34.5607 17.887 34.4906 17.0609 34.3515C17.0695 34.1398 17.0734 33.9422 17.0945 33.8047C17.2843 32.5625 17.9062 31.3476 18.7453 30.418C19.5742 29.5008 20.7101 28.8805 21.4101 27.8398C22.0961 26.8242 22.3015 25.457 22.0187 24.2703C21.6023 22.5172 19.2203 21.932 17.9359 20.9812C17.1976 20.4344 16.5406 19.589 15.5711 19.5203C15.1242 19.489 14.75 19.5851 14.307 19.4711C13.9008 19.3656 13.582 19.1469 13.1492 19.2039C12.3406 19.3101 11.8304 20.1742 10.9617 20.057C10.1375 19.9469 9.28825 18.982 9.10075 18.1969C8.86013 17.1875 9.65857 16.8601 10.514 16.7703C10.8711 16.7328 11.2718 16.6922 11.6148 16.8234C12.0664 16.9906 12.2797 17.4328 12.6851 17.6562C13.4453 18.0734 13.5992 17.407 13.4828 16.732C13.3086 15.7211 13.1054 15.3094 14.007 14.6133C14.632 14.1336 15.1664 13.7867 15.0664 12.925C15.007 12.4187 14.7297 12.1898 14.9883 11.6859C15.1843 11.3023 15.7226 10.9562 16.0734 10.7273C16.9789 10.1367 19.9523 10.1804 18.7375 8.52732C18.3804 8.04216 17.7218 7.17498 17.0968 7.05623C16.3156 6.90857 15.9687 7.78045 15.4242 8.16482C14.8617 8.56248 13.7664 9.01404 13.2031 8.3992C12.4453 7.57185 13.7054 7.30076 13.9843 6.72263C14.1133 6.4531 13.9843 6.07888 13.7672 5.72654C14.0489 5.60779 14.3354 5.49763 14.6265 5.39607C14.809 5.53084 15.0254 5.612 15.2515 5.63044C15.7742 5.66482 16.2672 5.38201 16.7234 5.73826C17.2297 6.12888 17.5945 6.62263 18.2664 6.74451C18.9164 6.86248 19.6047 6.48357 19.7656 5.81794C19.8633 5.41326 19.7656 4.98591 19.6718 4.56794C22.5937 4.58476 25.4463 5.45981 27.875 7.08435C27.7187 7.02498 27.532 7.03201 27.3015 7.13904C26.8273 7.35935 26.1554 7.92029 26.1 8.47654C26.0367 9.10779 26.9679 9.19685 27.4101 9.19685C28.0742 9.19685 28.7468 8.89998 28.5328 8.13279C28.4398 7.79998 28.3133 7.45388 28.1093 7.24451C28.5995 7.58463 29.0691 7.95351 29.5156 8.3492C29.5086 8.35623 29.5015 8.36248 29.4945 8.37029C29.0445 8.83904 28.5218 9.21013 28.214 9.78045C27.9968 10.182 27.7523 10.3726 27.3125 10.4765C27.0703 10.5336 26.7937 10.5547 26.5906 10.7172C26.025 11.1625 26.3468 12.2328 26.8828 12.5539C27.5601 12.9594 28.5648 12.7687 29.0758 12.1898C29.475 11.7367 29.7101 10.95 30.4281 10.9508C30.7442 10.9501 31.0478 11.0739 31.2734 11.2953C31.5703 11.6031 31.5117 11.8906 31.575 12.275C31.6867 12.9578 32.289 12.5875 32.6554 12.2429C32.9225 12.7183 33.1635 13.2078 33.3773 13.7094C32.9742 14.2898 32.6539 14.9226 31.6843 14.2461C31.1039 13.8406 30.7468 13.2523 30.0179 13.0695C29.3812 12.9133 28.7289 13.0758 28.1 13.1844C27.3851 13.3086 26.5375 13.3633 25.9953 13.9047C25.4711 14.4265 25.1937 15.125 24.6359 15.6492C23.557 16.6648 23.1015 17.7734 23.8 19.2094C24.4718 20.5898 25.8773 21.339 27.3937 21.2406C28.8836 21.1414 30.4312 20.2773 30.3883 22.4422C30.3726 23.2086 30.5328 23.739 30.7679 24.4508C30.9859 25.107 30.9711 25.743 31.0211 26.4203C31.0686 27.2135 31.1926 28.0002 31.3914 28.7695C29.9911 30.5725 28.1972 32.0315 26.1468 33.0353C24.0964 34.039 21.8438 34.5608 19.5609 34.5609Z" fill="#3671E9"/>
</svg>
